<svg width="280" height="55" viewBox="0 0 280 55" fill="none" xmlns="http://www.w3.org/2000/svg">
<g clip-path="url(#clip0_171_1662)">
<path d="M47.6695 0.803952C47.3609 0.62592 46.9931 0.57519 46.6466 0.662861C46.3 0.750533 46.0029 0.969467 45.8203 1.27175L36.1489 17.3632C36.0993 17.4466 36.0593 17.5352 36.0295 17.6273C34.9474 18.0213 33.9374 18.5849 33.0387 19.296C30.1083 14.4065 24.7391 11.3277 18.8732 11.3277C9.82213 11.3277 2.45967 18.5484 2.43444 27.4318H0.300903L0.491673 28.9241C1.60183 37.5971 7.04798 45.1726 14.8787 49.1616V54.2827H35.0843C37.6455 54.2827 39.7292 52.2344 39.7292 49.7183V49.1623C47.5624 45.1714 53.0061 37.5959 54.1187 28.9241L54.3095 27.4306H50.4566C50.4387 22.8964 47.4781 19.0416 43.36 17.5862L55.4264 6.18186C55.9631 5.67478 55.9803 4.83467 55.4621 4.30763C55.3394 4.18216 55.1926 4.08167 55.0303 4.0119C54.868 3.94214 54.6932 3.90447 54.5161 3.90104C54.3389 3.89762 54.1628 3.92851 53.9978 3.99195C53.8328 4.05539 53.6821 4.15013 53.5544 4.27077L40.1132 16.9764C39.9926 16.9715 39.8726 16.9582 39.7501 16.9582C39.6726 16.9582 39.5981 16.9691 39.5218 16.9703L48.1458 2.62016C48.236 2.47019 48.2952 2.30425 48.3201 2.13181C48.3449 1.95937 48.3349 1.78381 48.2907 1.61516C48.2465 1.4465 48.1689 1.28806 48.0623 1.14887C47.9557 1.00968 47.8222 0.892478 47.6695 0.803952ZM18.8726 13.9804C24.04 13.9804 28.7501 16.8374 31.0929 21.3135C30.2388 22.4673 29.6332 23.78 29.3132 25.1714C28.2394 20.4764 23.9698 16.957 18.8726 16.957C12.9852 16.957 8.19567 21.652 8.17044 27.4312H5.13537C5.15998 20.011 11.3114 13.9804 18.8726 13.9804ZM18.8726 22.5936C16.1464 22.5936 13.928 24.7604 13.9027 27.4312H10.872C10.8972 23.1146 14.4744 19.6103 18.8726 19.6103C23.272 19.6103 26.8529 23.1146 26.8757 27.4312H23.8412C23.8172 24.7604 21.5987 22.5936 18.8726 22.5936ZM21.1384 27.4318H16.6067C16.6188 26.8488 16.8628 26.2936 17.2866 25.8851C17.7103 25.4766 18.2801 25.2473 18.8738 25.2463C19.4673 25.2475 20.0367 25.4769 20.46 25.8854C20.8833 26.2939 21.1269 26.8491 21.1384 27.4318ZM51.1975 30.0845C49.6966 37.793 44.3741 44.3646 36.9975 47.5123H32.6744V50.1656H36.9686C36.8675 50.5819 36.6267 50.9526 36.2851 51.2183C35.9434 51.4839 35.5207 51.6289 35.0849 51.63H17.5803V50.1656H22.6443V47.5123H17.6129C10.2363 44.3664 4.91321 37.793 3.41106 30.0845H51.1975ZM37.4849 27.4318C37.4968 26.849 37.7405 26.294 38.1639 25.8855C38.5873 25.4771 39.1567 25.2476 39.7501 25.2463C40.3441 25.2468 40.9143 25.4759 41.3383 25.8845C41.7624 26.293 42.0065 26.8485 42.0184 27.4318H37.4849ZM39.7501 19.6109C44.1514 19.6109 47.7335 23.1152 47.7569 27.4318H44.7206C44.696 24.761 42.4769 22.5942 39.7501 22.5942C37.024 22.5942 34.8074 24.761 34.7827 27.4318H31.7495C31.7741 23.1152 35.3514 19.6109 39.7501 19.6109Z" fill="#AD343E"/>
<path d="M39.1741 42.9139C39.3901 42.9139 39.6086 42.8637 39.8098 42.7568C41.4591 41.8897 42.9065 40.6947 44.0598 39.248C45.2131 37.8012 46.0469 36.1345 46.5082 34.3539C46.5524 34.1848 46.5622 34.0088 46.537 33.8361C46.5118 33.6633 46.4522 33.4971 46.3614 33.347C46.2707 33.1969 46.1507 33.0659 46.0083 32.9615C45.8659 32.8571 45.7039 32.7813 45.5316 32.7385C45.3593 32.6957 45.1801 32.6867 45.0043 32.7121C44.8285 32.7374 44.6595 32.7967 44.507 32.8863C44.3545 32.976 44.2215 33.0943 44.1157 33.2346C44.0099 33.3748 43.9334 33.5342 43.8904 33.7035C43.5221 35.1266 42.856 36.4588 41.9345 37.6151C41.0131 38.7714 39.8565 39.7265 38.5384 40.4196C38.2726 40.5585 38.0618 40.7808 37.9395 41.051C37.8172 41.3213 37.7905 41.6239 37.8636 41.9108C37.9367 42.1976 38.1054 42.4522 38.3429 42.634C38.5804 42.8158 38.873 42.9143 39.1741 42.9139Z" fill="#474747"/>
<path d="M35.9058 45.0064C36.7901 45.0064 37.507 44.3023 37.507 43.4337C37.507 42.5652 36.7901 41.8611 35.9058 41.8611C35.0215 41.8611 34.3046 42.5652 34.3046 43.4337C34.3046 44.3023 35.0215 45.0064 35.9058 45.0064Z" fill="#474747"/>
</g>
<path d="M88.2227 13.8347C91.3516 13.8347 93.6272 14.3467 95.0494 15.3707C96.4716 16.3662 97.1827 17.7173 97.1827 19.424C97.1827 20.9031 96.7134 22.24 95.7747 23.4347C94.8645 24.6293 93.6129 25.6391 92.02 26.464C90.4272 27.2604 88.6209 27.8151 86.6014 28.128C89.6165 28.3556 91.8209 29.0951 93.2147 30.3467C94.6369 31.5982 95.348 33.0916 95.348 34.8267C95.348 36.3627 94.9783 37.6996 94.2387 38.8373C93.5276 39.9751 92.5463 40.928 91.2947 41.696C90.0716 42.464 88.6352 43.0471 86.9854 43.4453C85.3356 43.8151 83.5863 44 81.7374 44C80.7703 44 79.7036 43.9858 78.5374 43.9573C77.3996 43.9004 75.9916 43.872 74.3134 43.872C73.6023 43.872 72.8627 43.8862 72.0947 43.9147C71.3267 43.9147 70.6014 43.9289 69.9187 43.9573C69.236 43.9573 68.6529 43.9716 68.1694 44L68.34 43.1467C69.3072 43.0898 70.0609 42.976 70.6014 42.8053C71.1418 42.6347 71.5685 42.2933 71.8814 41.7813C72.1943 41.2693 72.4787 40.5013 72.7347 39.4773L78.3667 18.3147C78.5658 17.4613 78.6796 16.7787 78.708 16.2667C78.7365 15.7262 78.5374 15.328 78.1107 15.072C77.7125 14.7876 76.9587 14.6453 75.8494 14.6453L76.0627 13.792C76.5463 13.8204 77.1152 13.8489 77.7694 13.8773C78.452 13.8773 79.1774 13.8916 79.9454 13.92C80.7134 13.92 81.4245 13.92 82.0787 13.92C83.3018 13.92 84.3827 13.9058 85.3214 13.8773C86.2885 13.8489 87.2556 13.8347 88.2227 13.8347ZM80.244 28.6827L80.4147 27.9573H83.572C85.1934 27.9573 86.5729 27.5449 87.7107 26.72C88.8769 25.8667 89.7587 24.7573 90.356 23.392C90.9818 22.0267 91.2947 20.5902 91.2947 19.0827C91.2947 17.6604 91.0103 16.5653 90.4414 15.7973C89.9009 15.0293 88.948 14.6453 87.5827 14.6453C86.5872 14.6453 85.876 14.8444 85.4494 15.2427C85.0227 15.6124 84.6529 16.4231 84.34 17.6747L78.58 39.4773C78.4094 40.1884 78.2956 40.8142 78.2387 41.3547C78.2103 41.8951 78.3525 42.3076 78.6654 42.592C78.9783 42.8764 79.5614 43.0187 80.4147 43.0187C82.4343 43.0187 84.084 42.6347 85.364 41.8667C86.644 41.0987 87.5969 40.0462 88.2227 38.7093C88.8485 37.344 89.1614 35.808 89.1614 34.1013C89.1614 33.0489 88.9765 32.1244 88.6067 31.328C88.2654 30.5031 87.7107 29.8631 86.9427 29.408C86.1747 28.9244 85.1507 28.6827 83.8707 28.6827H80.244ZM105.448 14.6453C105.533 13.5929 105.96 12.7538 106.728 12.128C107.496 11.5022 108.392 11.1893 109.416 11.1893C110.354 11.1893 111.065 11.4596 111.549 12C112.061 12.512 112.274 13.1804 112.189 14.0053C112.104 14.9724 111.677 15.7831 110.909 16.4373C110.141 17.0916 109.245 17.4187 108.221 17.4187C107.282 17.4187 106.557 17.1627 106.045 16.6507C105.561 16.1102 105.362 15.4418 105.448 14.6453ZM103.954 25.6107C104.466 24.0747 104.296 23.3067 103.442 23.3067C102.873 23.3067 102.361 23.6053 101.906 24.2027C101.451 24.7716 100.968 25.696 100.456 26.976L99.7304 28.9813H98.9197L100.029 25.7813C100.456 24.6436 100.968 23.7618 101.565 23.136C102.162 22.4818 102.831 22.0267 103.57 21.7707C104.31 21.5147 105.035 21.3867 105.746 21.3867C106.742 21.3867 107.496 21.5716 108.008 21.9413C108.52 22.3111 108.861 22.7947 109.032 23.392C109.202 23.9893 109.245 24.6436 109.16 25.3547C109.074 26.0373 108.918 26.7058 108.69 27.36L104.168 40.3733C103.912 41.1413 103.841 41.7244 103.954 42.1227C104.068 42.4924 104.338 42.6773 104.765 42.6773C105.22 42.6773 105.675 42.4356 106.13 41.952C106.614 41.44 107.126 40.4587 107.666 39.008L108.392 37.088H109.202L108.136 40.2027C107.709 41.3404 107.197 42.2364 106.6 42.8907C106.002 43.5164 105.348 43.9573 104.637 44.2133C103.926 44.4693 103.229 44.5973 102.546 44.5973C101.295 44.5973 100.385 44.3271 99.8157 43.7867C99.2468 43.2178 98.9624 42.4498 98.9624 41.4827C98.9624 40.4871 99.1899 39.3493 99.645 38.0693L103.954 25.6107ZM113.769 43.36C113.997 43.4738 114.238 43.5733 114.494 43.6587C114.75 43.7156 115.106 43.744 115.561 43.744C116.642 43.744 117.538 43.4027 118.249 42.72C118.989 42.0089 119.358 41.0276 119.358 39.776C119.358 38.8658 119.159 37.9413 118.761 37.0027C118.391 36.064 117.822 35.0258 117.054 33.888C116.372 32.8924 115.746 31.9111 115.177 30.944C114.637 29.9769 114.366 28.8676 114.366 27.616C114.366 26.3929 114.665 25.3262 115.262 24.416C115.86 23.4773 116.713 22.7378 117.822 22.1973C118.932 21.6569 120.226 21.3867 121.705 21.3867C122.672 21.3867 123.625 21.5004 124.564 21.728C125.502 21.9556 126.27 22.368 126.868 22.9653C127.465 23.5627 127.764 24.4302 127.764 25.568C127.764 25.9662 127.678 26.3929 127.508 26.848C127.337 27.2747 127.081 27.6444 126.74 27.9573C126.398 28.2702 125.943 28.4267 125.374 28.4267C124.777 28.4267 124.279 28.1991 123.881 27.744C123.483 27.2604 123.284 26.6489 123.284 25.9093C123.284 25.2551 123.397 24.6436 123.625 24.0747C123.881 23.5058 124.18 23.008 124.521 22.5813C124.123 22.3538 123.554 22.24 122.814 22.24C121.79 22.24 120.965 22.5671 120.34 23.2213C119.714 23.8756 119.401 24.8 119.401 25.9947C119.401 26.6204 119.501 27.2178 119.7 27.7867C119.927 28.3271 120.226 28.896 120.596 29.4933C120.994 30.0622 121.435 30.7307 121.918 31.4987C122.715 32.7787 123.341 33.9307 123.796 34.9547C124.251 35.9502 124.478 36.9742 124.478 38.0267C124.478 39.2782 124.137 40.4018 123.454 41.3973C122.8 42.3929 121.89 43.1751 120.724 43.744C119.557 44.3129 118.192 44.5973 116.628 44.5973C115.518 44.5973 114.452 44.4409 113.428 44.128C112.432 43.8436 111.607 43.36 110.953 42.6773C110.327 41.9947 110.014 41.056 110.014 39.8613C110.014 39.2071 110.199 38.6098 110.569 38.0693C110.91 37.5004 111.451 37.216 112.19 37.216C112.93 37.216 113.485 37.5147 113.854 38.112C114.224 38.7093 114.409 39.4489 114.409 40.3307C114.409 40.9564 114.324 41.5396 114.153 42.08C114.011 42.592 113.883 43.0187 113.769 43.36ZM144.568 21.984L144.44 22.8373H130.147L130.36 21.984H144.568ZM134.2 40.3733C133.972 41.1698 134.001 41.7529 134.285 42.1227C134.598 42.4924 135.011 42.6773 135.523 42.6773C136.12 42.6773 136.717 42.3929 137.315 41.824C137.94 41.2551 138.509 40.2596 139.021 38.8373L139.661 37.088H140.472L139.619 39.648C139.021 41.4116 138.196 42.6773 137.144 43.4453C136.092 44.2133 134.84 44.5973 133.389 44.5973C132.109 44.5973 131.128 44.3129 130.445 43.744C129.791 43.1751 129.393 42.4071 129.251 41.44C129.137 40.4444 129.265 39.3209 129.635 38.0693L136.077 15.584C137.101 15.5556 138.054 15.4987 138.936 15.4133C139.846 15.328 140.7 15.1858 141.496 14.9867L134.2 40.3733ZM148.42 44H143.172L148.292 25.6107C148.548 24.7573 148.633 24.16 148.548 23.8187C148.463 23.4773 148.207 23.3067 147.78 23.3067C147.24 23.3067 146.742 23.5769 146.287 24.1173C145.832 24.6578 145.362 25.6107 144.879 26.976L144.153 28.9813H143.343L144.452 25.7813C144.85 24.6436 145.348 23.7618 145.945 23.136C146.543 22.4818 147.197 22.0267 147.908 21.7707C148.619 21.5147 149.344 21.3867 150.084 21.3867C150.994 21.3867 151.663 21.5716 152.089 21.9413C152.544 22.3111 152.829 22.7947 152.943 23.392C153.085 23.9893 153.113 24.6436 153.028 25.3547C152.971 26.0373 152.857 26.7058 152.687 27.36L148.42 44ZM159.343 22.368C158.717 22.368 158.077 22.5956 157.423 23.0507C156.768 23.4773 156.086 24.1742 155.375 25.1413C154.664 26.1084 153.938 27.3884 153.199 28.9813C152.488 30.5458 151.748 32.4658 150.98 34.7413C150.212 36.9884 149.444 39.648 148.676 42.72L149.7 37.0453C150.582 34.0587 151.407 31.5698 152.175 29.5787C152.971 27.5591 153.739 25.952 154.479 24.7573C155.247 23.5342 156.057 22.6667 156.911 22.1547C157.764 21.6427 158.688 21.3867 159.684 21.3867C160.708 21.3867 161.49 21.6853 162.031 22.2827C162.6 22.88 162.884 23.6196 162.884 24.5013C162.884 25.2124 162.713 25.8809 162.372 26.5067C162.031 27.104 161.576 27.5876 161.007 27.9573C160.466 28.2987 159.84 28.4693 159.129 28.4693C158.418 28.4693 157.849 28.2844 157.423 27.9147C157.024 27.5449 156.825 27.0044 156.825 26.2933C156.825 25.6676 156.968 25.0987 157.252 24.5867C157.536 24.0747 157.906 23.648 158.361 23.3067C158.816 22.9369 159.314 22.6809 159.855 22.5387C159.798 22.4818 159.727 22.4391 159.641 22.4107C159.556 22.3822 159.456 22.368 159.343 22.368ZM174.322 22.24C173.582 22.24 172.829 22.624 172.061 23.392C171.293 24.1316 170.567 25.1556 169.885 26.464C169.202 27.744 168.576 29.1804 168.007 30.7733C167.467 32.3662 167.04 34.016 166.727 35.7227C166.414 37.4009 166.258 39.008 166.258 40.544C166.258 41.6818 166.4 42.5067 166.685 43.0187C166.998 43.5022 167.453 43.744 168.05 43.744C168.761 43.744 169.501 43.3742 170.269 42.6347C171.037 41.8951 171.762 40.8996 172.445 39.648C173.156 38.368 173.782 36.9458 174.322 35.3813C174.862 33.7884 175.289 32.1387 175.602 30.432C175.915 28.7253 176.071 27.0613 176.071 25.44C176.071 24.2453 175.915 23.4204 175.602 22.9653C175.318 22.4818 174.891 22.24 174.322 22.24ZM161.223 37.6853C161.223 36.4053 161.394 35.0258 161.735 33.5467C162.105 32.0676 162.646 30.6169 163.357 29.1947C164.068 27.744 164.95 26.4356 166.002 25.2693C167.083 24.0747 168.334 23.136 169.757 22.4533C171.179 21.7422 172.786 21.3867 174.578 21.3867C176.626 21.3867 178.219 21.9698 179.357 23.136C180.523 24.2738 181.106 25.9947 181.106 28.2987C181.106 29.5787 180.921 30.9582 180.551 32.4373C180.21 33.9164 179.684 35.3813 178.973 36.832C178.262 38.2542 177.366 39.5627 176.285 40.7573C175.232 41.9236 173.995 42.8622 172.573 43.5733C171.15 44.256 169.543 44.5973 167.751 44.5973C165.703 44.5973 164.096 44.0142 162.93 42.848C161.792 41.6818 161.223 39.9609 161.223 37.6853ZM211.048 13.8347C214.177 13.8347 216.452 14.3467 217.874 15.3707C219.297 16.3662 220.008 17.7173 220.008 19.424C220.008 20.9031 219.538 22.24 218.6 23.4347C217.689 24.6293 216.438 25.6391 214.845 26.464C213.252 27.2604 211.446 27.8151 209.426 28.128C212.441 28.3556 214.646 29.0951 216.04 30.3467C217.462 31.5982 218.173 33.0916 218.173 34.8267C218.173 36.3627 217.803 37.6996 217.064 38.8373C216.353 39.9751 215.371 40.928 214.12 41.696C212.897 42.464 211.46 43.0471 209.81 43.4453C208.161 43.8151 206.411 44 204.562 44C203.595 44 202.529 43.9858 201.362 43.9573C200.225 43.9004 198.817 43.872 197.138 43.872C196.427 43.872 195.688 43.8862 194.92 43.9147C194.152 43.9147 193.426 43.9289 192.744 43.9573C192.061 43.9573 191.478 43.9716 190.994 44L191.165 43.1467C192.132 43.0898 192.886 42.976 193.426 42.8053C193.967 42.6347 194.393 42.2933 194.706 41.7813C195.019 41.2693 195.304 40.5013 195.56 39.4773L201.192 18.3147C201.391 17.4613 201.505 16.7787 201.533 16.2667C201.561 15.7262 201.362 15.328 200.936 15.072C200.537 14.7876 199.784 14.6453 198.674 14.6453L198.888 13.792C199.371 13.8204 199.94 13.8489 200.594 13.8773C201.277 13.8773 202.002 13.8916 202.77 13.92C203.538 13.92 204.249 13.92 204.904 13.92C206.127 13.92 207.208 13.9058 208.146 13.8773C209.113 13.8489 210.081 13.8347 211.048 13.8347ZM203.069 28.6827L203.24 27.9573H206.397C208.018 27.9573 209.398 27.5449 210.536 26.72C211.702 25.8667 212.584 24.7573 213.181 23.392C213.807 22.0267 214.12 20.5902 214.12 19.0827C214.12 17.6604 213.835 16.5653 213.266 15.7973C212.726 15.0293 211.773 14.6453 210.408 14.6453C209.412 14.6453 208.701 14.8444 208.274 15.2427C207.848 15.6124 207.478 16.4231 207.165 17.6747L201.405 39.4773C201.234 40.1884 201.121 40.8142 201.064 41.3547C201.035 41.8951 201.177 42.3076 201.49 42.592C201.803 42.8764 202.386 43.0187 203.24 43.0187C205.259 43.0187 206.909 42.6347 208.189 41.8667C209.469 41.0987 210.422 40.0462 211.048 38.7093C211.673 37.344 211.986 35.808 211.986 34.1013C211.986 33.0489 211.801 32.1244 211.432 31.328C211.09 30.5031 210.536 29.8631 209.768 29.408C209 28.9244 207.976 28.6827 206.696 28.6827H203.069ZM226.054 40.3733C225.826 41.1413 225.77 41.7244 225.883 42.1227C226.026 42.4924 226.31 42.6773 226.737 42.6773C227.135 42.6773 227.562 42.4356 228.017 41.952C228.5 41.44 229.012 40.4587 229.553 39.008L230.235 37.088H231.046L229.979 40.2027C229.581 41.3404 229.083 42.2364 228.486 42.8907C227.889 43.5164 227.249 43.9573 226.566 44.2133C225.883 44.4693 225.186 44.5973 224.475 44.5973C223.565 44.5973 222.84 44.4267 222.299 44.0853C221.759 43.744 221.389 43.2747 221.19 42.6773C220.991 42.08 220.92 41.3973 220.977 40.6293C221.034 39.8329 221.204 38.9796 221.489 38.0693L228.273 15.5413C228.557 14.5742 228.529 13.8631 228.187 13.408C227.846 12.9529 226.978 12.7253 225.585 12.7253L225.883 11.8293C227.732 11.8009 229.382 11.6444 230.833 11.36C232.283 11.0471 233.677 10.6204 235.014 10.08L226.054 40.3733ZM240.373 14.6453C240.458 13.5929 240.885 12.7538 241.653 12.128C242.421 11.5022 243.317 11.1893 244.341 11.1893C245.279 11.1893 245.99 11.4596 246.474 12C246.986 12.512 247.199 13.1804 247.114 14.0053C247.029 14.9724 246.602 15.7831 245.834 16.4373C245.066 17.0916 244.17 17.4187 243.146 17.4187C242.207 17.4187 241.482 17.1627 240.97 16.6507C240.486 16.1102 240.287 15.4418 240.373 14.6453ZM238.879 25.6107C239.391 24.0747 239.221 23.3067 238.367 23.3067C237.798 23.3067 237.286 23.6053 236.831 24.2027C236.376 24.7716 235.893 25.696 235.381 26.976L234.655 28.9813H233.845L234.954 25.7813C235.381 24.6436 235.893 23.7618 236.49 23.136C237.087 22.4818 237.756 22.0267 238.495 21.7707C239.235 21.5147 239.96 21.3867 240.671 21.3867C241.667 21.3867 242.421 21.5716 242.933 21.9413C243.445 22.3111 243.786 22.7947 243.957 23.392C244.127 23.9893 244.17 24.6436 244.085 25.3547C243.999 26.0373 243.843 26.7058 243.615 27.36L239.093 40.3733C238.837 41.1413 238.766 41.7244 238.879 42.1227C238.993 42.4924 239.263 42.6773 239.69 42.6773C240.145 42.6773 240.6 42.4356 241.055 41.952C241.539 41.44 242.051 40.4587 242.591 39.008L243.317 37.088H244.127L243.061 40.2027C242.634 41.3404 242.122 42.2364 241.525 42.8907C240.927 43.5164 240.273 43.9573 239.562 44.2133C238.851 44.4693 238.154 44.5973 237.471 44.5973C236.22 44.5973 235.31 44.3271 234.741 43.7867C234.172 43.2178 233.887 42.4498 233.887 41.4827C233.887 40.4871 234.115 39.3493 234.57 38.0693L238.879 25.6107ZM248.694 43.36C248.922 43.4738 249.163 43.5733 249.419 43.6587C249.675 43.7156 250.031 43.744 250.486 43.744C251.567 43.744 252.463 43.4027 253.174 42.72C253.914 42.0089 254.283 41.0276 254.283 39.776C254.283 38.8658 254.084 37.9413 253.686 37.0027C253.316 36.064 252.747 35.0258 251.979 33.888C251.297 32.8924 250.671 31.9111 250.102 30.944C249.562 29.9769 249.291 28.8676 249.291 27.616C249.291 26.3929 249.59 25.3262 250.187 24.416C250.785 23.4773 251.638 22.7378 252.747 22.1973C253.857 21.6569 255.151 21.3867 256.63 21.3867C257.597 21.3867 258.55 21.5004 259.489 21.728C260.427 21.9556 261.195 22.368 261.793 22.9653C262.39 23.5627 262.689 24.4302 262.689 25.568C262.689 25.9662 262.603 26.3929 262.433 26.848C262.262 27.2747 262.006 27.6444 261.665 27.9573C261.323 28.2702 260.868 28.4267 260.299 28.4267C259.702 28.4267 259.204 28.1991 258.806 27.744C258.408 27.2604 258.209 26.6489 258.209 25.9093C258.209 25.2551 258.322 24.6436 258.55 24.0747C258.806 23.5058 259.105 23.008 259.446 22.5813C259.048 22.3538 258.479 22.24 257.739 22.24C256.715 22.24 255.89 22.5671 255.265 23.2213C254.639 23.8756 254.326 24.8 254.326 25.9947C254.326 26.6204 254.426 27.2178 254.625 27.7867C254.852 28.3271 255.151 28.896 255.521 29.4933C255.919 30.0622 256.36 30.7307 256.843 31.4987C257.64 32.7787 258.266 33.9307 258.721 34.9547C259.176 35.9502 259.403 36.9742 259.403 38.0267C259.403 39.2782 259.062 40.4018 258.379 41.3973C257.725 42.3929 256.815 43.1751 255.649 43.744C254.482 44.3129 253.117 44.5973 251.553 44.5973C250.443 44.5973 249.377 44.4409 248.353 44.128C247.357 43.8436 246.532 43.36 245.878 42.6773C245.252 41.9947 244.939 41.056 244.939 39.8613C244.939 39.2071 245.124 38.6098 245.494 38.0693C245.835 37.5004 246.376 37.216 247.115 37.216C247.855 37.216 248.41 37.5147 248.779 38.112C249.149 38.7093 249.334 39.4489 249.334 40.3307C249.334 40.9564 249.249 41.5396 249.078 42.08C248.936 42.592 248.808 43.0187 248.694 43.36ZM265.669 43.36C265.897 43.4738 266.138 43.5733 266.394 43.6587C266.65 43.7156 267.006 43.744 267.461 43.744C268.542 43.744 269.438 43.4027 270.149 42.72C270.889 42.0089 271.258 41.0276 271.258 39.776C271.258 38.8658 271.059 37.9413 270.661 37.0027C270.291 36.064 269.722 35.0258 268.954 33.888C268.272 32.8924 267.646 31.9111 267.077 30.944C266.537 29.9769 266.266 28.8676 266.266 27.616C266.266 26.3929 266.565 25.3262 267.162 24.416C267.76 23.4773 268.613 22.7378 269.722 22.1973C270.832 21.6569 272.126 21.3867 273.605 21.3867C274.572 21.3867 275.525 21.5004 276.464 21.728C277.402 21.9556 278.17 22.368 278.768 22.9653C279.365 23.5627 279.664 24.4302 279.664 25.568C279.664 25.9662 279.578 26.3929 279.408 26.848C279.237 27.2747 278.981 27.6444 278.64 27.9573C278.298 28.2702 277.843 28.4267 277.274 28.4267C276.677 28.4267 276.179 28.1991 275.781 27.744C275.383 27.2604 275.184 26.6489 275.184 25.9093C275.184 25.2551 275.297 24.6436 275.525 24.0747C275.781 23.5058 276.08 23.008 276.421 22.5813C276.023 22.3538 275.454 22.24 274.714 22.24C273.69 22.24 272.865 22.5671 272.24 23.2213C271.614 23.8756 271.301 24.8 271.301 25.9947C271.301 26.6204 271.401 27.2178 271.6 27.7867C271.827 28.3271 272.126 28.896 272.496 29.4933C272.894 30.0622 273.335 30.7307 273.818 31.4987C274.615 32.7787 275.241 33.9307 275.696 34.9547C276.151 35.9502 276.378 36.9742 276.378 38.0267C276.378 39.2782 276.037 40.4018 275.354 41.3973C274.7 42.3929 273.79 43.1751 272.624 43.744C271.457 44.3129 270.092 44.5973 268.528 44.5973C267.418 44.5973 266.352 44.4409 265.328 44.128C264.332 43.8436 263.507 43.36 262.853 42.6773C262.227 41.9947 261.914 41.056 261.914 39.8613C261.914 39.2071 262.099 38.6098 262.469 38.0693C262.81 37.5004 263.351 37.216 264.09 37.216C264.83 37.216 265.385 37.5147 265.754 38.112C266.124 38.7093 266.309 39.4489 266.309 40.3307C266.309 40.9564 266.224 41.5396 266.053 42.08C265.911 42.592 265.783 43.0187 265.669 43.36Z" fill="#474747"/>
<defs>
<clipPath id="clip0_171_1662">
<rect width="56" height="55" fill="white"/>
</clipPath>
</defs>
</svg>
